<?xml version="1.0" standalone="no"?>
<!DOCTYPE svg PUBLIC "-//W3C//DTD SVG 20010904//EN"
 "http://www.w3.org/TR/2001/REC-SVG-20010904/DTD/svg10.dtd">
<svg version="1.0" xmlns="http://www.w3.org/2000/svg"
 width="500.000000pt" height="500.000000pt" viewBox="0 0 500.000000 500.000000"
 preserveAspectRatio="xMidYMid meet">

<g transform="translate(0.000000,500.000000) scale(0.100000,-0.100000)"
fill="#000000" stroke="none">
<path d="M801 3188 c-56 -16 -132 -71 -205 -148 -199 -212 -320 -528 -243
-640 30 -45 73 -58 187 -59 178 -2 277 -30 324 -94 l21 -28 -45 -37 c-92 -75
-194 -179 -231 -236 -32 -48 -39 -68 -39 -108 0 -44 3 -50 28 -59 38 -15 105
-4 149 24 59 38 131 121 163 190 25 52 30 75 30 142 l1 80 102 82 c56 46 130
108 164 139 l62 55 -6 -55 c-9 -90 35 -132 95 -90 50 35 76 182 40 233 -11 15
-15 34 -11 52 12 59 -55 17 -78 -49 -6 -18 -15 -32 -20 -32 -5 0 -74 -55 -152
-123 -78 -67 -159 -135 -179 -151 l-37 -28 -34 36 c-19 20 -54 45 -78 55 -50
22 -180 41 -282 41 -75 0 -130 18 -146 48 -31 57 5 206 85 350 38 70 178 249
228 292 47 41 126 80 162 80 50 0 79 -18 105 -64 22 -38 24 -51 23 -171 -1
-71 -6 -142 -12 -157 -6 -15 -14 -57 -18 -93 -6 -55 -4 -65 9 -65 18 0 23 12
49 110 25 96 35 292 18 346 -19 57 -68 121 -103 133 -36 13 -80 13 -126 -1z
m569 -686 c0 -39 -6 -67 -20 -90 -22 -36 -40 -35 -40 2 0 36 41 157 51 150 5
-3 9 -31 9 -62z m-470 -388 c0 -132 -146 -304 -258 -304 -57 0 -55 34 8 128
37 55 221 232 241 232 5 0 9 -25 9 -56z"/>
<path d="M4045 2938 c-8 -29 -20 -80 -25 -113 -17 -105 -23 -118 -54 -121 -38
-4 -68 -33 -105 -103 -37 -69 -110 -141 -145 -141 -33 0 -47 21 -60 92 -6 34
-16 63 -23 65 -6 2 -32 -31 -57 -74 -32 -54 -46 -71 -46 -55 0 33 27 93 57
125 27 27 66 36 78 17 10 -17 25 -11 25 10 0 23 -28 40 -68 40 -22 0 -39 -10
-65 -39 -19 -22 -40 -48 -46 -60 -6 -11 -44 -39 -84 -62 -39 -22 -84 -50 -100
-60 -15 -11 -31 -18 -35 -15 -4 2 -3 54 2 115 11 131 0 234 -25 239 -12 2 -39
-34 -94 -125 -79 -133 -148 -223 -160 -211 -7 6 4 60 31 156 5 18 2 22 -15 22
-32 0 -61 -69 -61 -146 0 -93 34 -110 92 -46 18 20 44 55 57 77 13 22 34 56
46 75 12 19 37 59 55 88 18 29 35 51 37 48 5 -5 -14 -260 -23 -313 -5 -24 -20
-43 -59 -72 -160 -121 -288 -296 -287 -392 1 -74 34 -108 104 -109 119 0 215
154 270 432 l21 109 56 38 c31 21 75 48 98 60 l42 21 3 -48 c3 -43 5 -47 30
-50 24 -3 32 5 65 55 l37 58 12 -32 c20 -47 62 -76 103 -69 19 3 44 14 56 26
29 27 35 25 35 -9 0 -29 22 -61 42 -61 22 0 68 64 94 131 15 38 30 72 33 74 3
1 6 -88 6 -199 0 -157 3 -207 14 -219 7 -10 17 -17 21 -17 4 0 7 120 7 268 -1
274 4 325 48 467 21 71 20 105 -5 105 -15 0 -23 -12 -35 -52z m-89 -330 c-39
-101 -77 -178 -88 -178 -15 0 -1 95 22 147 19 44 61 93 79 93 6 0 0 -28 -13
-62z m-736 -282 c0 -22 -27 -134 -51 -212 -46 -149 -112 -234 -183 -234 -77 0
-90 85 -28 190 34 59 232 270 254 270 4 0 8 -6 8 -14z"/>
<path d="M1522 2657 c-29 -32 -52 -109 -52 -175 0 -62 11 -82 45 -82 25 0 49
24 101 104 l39 59 8 -54 c5 -39 14 -60 33 -76 34 -31 61 -29 117 7 26 17 50
30 52 30 3 0 5 -25 5 -55 0 -42 3 -55 15 -55 9 0 15 9 15 24 0 32 27 106 47
128 11 13 31 18 64 18 l48 0 3 -57 c3 -55 5 -58 30 -61 24 -3 31 4 59 54 30
52 33 55 46 38 7 -10 13 -23 13 -29 0 -7 9 -20 21 -31 29 -26 90 -24 128 4 17
12 33 22 36 22 3 0 5 -21 5 -48 0 -27 7 -57 16 -70 39 -56 101 -4 170 145 48
104 54 124 37 130 -7 3 -33 -38 -62 -100 -49 -101 -95 -166 -108 -153 -11 10
-4 125 10 201 15 76 13 95 -9 95 -17 0 -44 -58 -44 -95 0 -31 -61 -101 -96
-109 -56 -14 -74 6 -83 93 -3 30 -11 56 -17 58 -11 4 -43 -40 -88 -119 -15
-24 -20 -29 -23 -16 -4 17 26 83 59 131 19 27 61 37 73 17 9 -15 35 -12 35 3
0 22 -34 47 -64 47 -37 0 -80 -32 -107 -80 -23 -40 -23 -40 -84 -40 -40 0 -68
-6 -84 -17 l-24 -16 6 57 c5 46 3 58 -10 63 -21 8 -33 -15 -33 -65 0 -24 -6
-49 -13 -55 -90 -85 -126 -97 -147 -47 -7 16 -12 42 -12 57 0 58 -9 93 -23 93
-8 0 -37 -33 -64 -72 -61 -89 -76 -108 -85 -108 -15 0 -4 80 19 135 14 33 25
65 25 71 0 22 -28 22 -48 1z"/>
<path d="M4167 2650 c-56 -49 -101 -176 -78 -219 20 -36 54 -27 81 22 39 71
41 72 64 30 37 -65 94 -77 156 -33 l27 20 7 -53 c12 -83 47 -107 100 -66 28
22 136 230 136 262 0 39 -27 7 -75 -90 -102 -206 -136 -194 -98 34 10 56 14
106 10 110 -17 16 -43 -17 -57 -73 -17 -66 -30 -86 -78 -116 -57 -35 -102 -3
-102 73 0 17 -5 39 -11 50 -14 28 -30 13 -76 -69 -39 -70 -56 -69 -28 1 25 63
62 107 90 107 13 0 27 -4 30 -10 9 -15 35 -12 35 3 0 23 -35 47 -68 47 -21 0
-43 -10 -65 -30z"/>
</g>
</svg>
